<svg width="16" height="16" viewBox="0 0 16 16" fill="none" xmlns="http://www.w3.org/2000/svg">
<g id="Frame" clip-path="url(#clip0_1036_75839)">
<path id="Vector" d="M4.89977 1.79V2.82H3.85977H2.81977V3.86V4.9H1.78977H0.759766V5.94V6.98H1.78977H2.81977V8V9.02H1.78977H0.759766V10.06V11.1H1.78977H2.81977V12.14V13.18H3.85977H4.89977V14.21V15.24H5.93977H6.97977V14.21V13.18H7.99976H9.01976V14.21V15.24H10.0598H11.0998V14.21V13.18H12.1398H13.1798V12.14V11.1H14.2098H15.2398V10.06V9.02H14.2098H13.1798V8V6.98H14.2098H15.2398V5.94V4.9H14.2098H13.1798V3.86V2.82H12.1398H11.0998V1.79V0.759999H10.0598H9.01976V1.79V2.82H7.99976H6.97977V1.79V0.759999H5.93977H4.89977V1.79ZM9.01976 5.94V6.98H10.0598H11.0998V8V9.02H10.0598H9.01976V10.06V11.1H7.99976H6.97977V10.06V9.02H5.93977H4.89977V8V6.98H5.93977H6.97977V5.94V4.9H7.99976H9.01976V5.94Z" fill="#EAECF0"/>
</g>
<defs>
<clipPath id="clip0_1036_75839">
<rect width="16" height="16" fill="white"/>
</clipPath>
</defs>
</svg>
