<svg width="16" height="16" viewBox="0 0 16 16" fill="none" xmlns="http://www.w3.org/2000/svg">
<g id="Frame">
<path id="Vector" d="M14.5 8C14.5002 9.12221 14.2099 10.2254 13.6574 11.2021C13.1048 12.1788 12.3087 12.9958 11.3467 13.5736C10.3847 14.1514 9.28942 14.4703 8.16759 14.4993C7.04575 14.5282 5.93554 14.2662 4.945 13.7388L2.81687 14.4481C2.64068 14.5069 2.4516 14.5154 2.27083 14.4728C2.09006 14.4301 1.92474 14.3379 1.79341 14.2066C1.66207 14.0753 1.56991 13.9099 1.52725 13.7292C1.48459 13.5484 1.49312 13.3593 1.55187 13.1831L2.26125 11.055C1.79759 10.1833 1.53862 9.21737 1.504 8.23061C1.46937 7.24385 1.66 6.26217 2.06142 5.36009C2.46283 4.458 3.06448 3.65922 3.8207 3.02437C4.57691 2.38953 5.46782 1.9353 6.42579 1.69618C7.38376 1.45705 8.38362 1.43931 9.34948 1.6443C10.3153 1.84929 11.2218 2.27162 12.0001 2.87924C12.7783 3.48685 13.4079 4.26379 13.8411 5.15106C14.2743 6.03834 14.4996 7.01264 14.5 8Z" fill="#EAECF0"/>
</g>
</svg>
