<svg width="48" height="48" viewBox="0 0 48 48" fill="none" xmlns="http://www.w3.org/2000/svg">
<rect width="48" height="48" rx="8" fill="white"/>
<g clip-path="url(#clip0_1014_1287)">
<path d="M35.5965 11.5368L25.5226 19.0092L27.3976 14.592L35.5965 11.5368Z" fill="#E17726" stroke="#E17726" stroke-width="0.25" stroke-linecap="round" stroke-linejoin="round"/>
<path d="M12.3235 11.5368L22.3239 19.0828L20.5223 14.6288L12.3235 11.5368ZM31.9566 28.8742L29.2726 32.9969L35.0449 34.5798L36.6994 28.9847C36.6626 28.9847 31.9566 28.8742 31.9566 28.8742ZM11.2573 28.9847L12.9118 34.5798L18.6473 32.9969L15.9634 28.8742L11.2573 28.9847Z" fill="#E27625" stroke="#E27625" stroke-width="0.25" stroke-linecap="round" stroke-linejoin="round"/>
<path d="M18.3164 21.954L16.7355 24.3834L22.3974 24.6043L22.2136 18.4939L18.3164 21.954ZM29.6036 21.954L25.6328 18.4202L25.4858 24.6411L31.1845 24.3834C31.1845 24.3466 29.6036 21.954 29.6036 21.954ZM18.6473 32.9969L22.1033 31.3405L19.1253 29.0215L18.6473 32.9969ZM25.8534 31.3037L29.2727 32.9601L28.7947 28.9847C28.8315 29.0215 25.8534 31.3037 25.8534 31.3037Z" fill="#E27625" stroke="#E27625" stroke-width="0.25" stroke-linecap="round" stroke-linejoin="round"/>
<path d="M29.2727 32.9969L25.8535 31.3405L26.1476 33.5859L26.1108 34.5429L29.2727 32.9969ZM18.6473 32.9969L21.846 34.5061L21.8092 33.5491L22.1033 31.3037L18.6473 32.9969Z" fill="#D5BFB2" stroke="#D5BFB2" stroke-width="0.25" stroke-linecap="round" stroke-linejoin="round"/>
<path d="M21.8827 27.5491L19.0518 26.7025L21.0739 25.7822L21.8827 27.5491ZM26.0373 27.5491L26.8829 25.7822L28.905 26.7025L26.0373 27.5491Z" fill="#233447" stroke="#233447" stroke-width="0.25" stroke-linecap="round" stroke-linejoin="round"/>
<path d="M18.6473 32.9969L19.162 28.8742L16.0001 28.9847C15.9634 28.9847 18.6473 32.9969 18.6473 32.9969ZM28.7947 28.8742L29.2726 32.9969L31.9566 28.9847L28.7947 28.8742ZM31.1845 24.3466L25.4857 24.6043L26.0005 27.5123L26.8461 25.7454L28.8682 26.6656C28.905 26.7025 31.1845 24.3466 31.1845 24.3466ZM19.0517 26.7025L21.0738 25.7822L21.9195 27.5491L22.4342 24.6411L16.7354 24.3834L19.0517 26.7025Z" fill="#CC6228" stroke="#CC6228" stroke-width="0.25" stroke-linecap="round" stroke-linejoin="round"/>
<path d="M16.7355 24.3466L19.1253 28.9847L19.0517 26.6656C19.0517 26.7025 16.7355 24.3466 16.7355 24.3466ZM28.905 26.7025L28.7947 29.0215L31.1845 24.3834C31.1845 24.3466 28.905 26.7025 28.905 26.7025ZM22.4342 24.6043L21.8827 27.5123L22.5445 30.9724L22.6916 26.408L22.4342 24.6043ZM25.5225 24.6043L25.2284 26.408L25.3755 30.9724L26.0373 27.5123L25.5225 24.6043Z" fill="#E27525" stroke="#E27525" stroke-width="0.25" stroke-linecap="round" stroke-linejoin="round"/>
<path d="M26.0373 27.5491L25.3755 31.0092L25.8535 31.3405L28.7947 29.0215L28.905 26.7025L26.0373 27.5491ZM19.0518 26.7025L19.1253 29.0215L22.1033 31.3405L22.5813 31.0092L21.9195 27.5491L19.0518 26.7025Z" fill="#F5841F" stroke="#F5841F" stroke-width="0.25" stroke-linecap="round" stroke-linejoin="round"/>
<path d="M26.1108 34.5061L26.1476 33.5491L25.8902 33.3282H22.0666L21.8092 33.5491L21.846 34.5061L18.6473 32.9969L19.7871 33.9172L22.0666 35.4632H25.9638L28.2433 33.8804L29.3462 32.9601L26.1108 34.5061Z" fill="#C0AC9D" stroke="#C0AC9D" stroke-width="0.25" stroke-linecap="round" stroke-linejoin="round"/>
<path d="M25.8535 31.3037L25.3755 30.9724H22.5813L22.1033 31.3037L21.8092 33.5491L22.0666 33.3282H25.8902L26.1476 33.5491L25.8535 31.3037Z" fill="#161616" stroke="#161616" stroke-width="0.25" stroke-linecap="round" stroke-linejoin="round"/>
<path d="M36.0376 19.5245L36.8832 15.4018L35.5964 11.5368L25.8534 18.7883L29.6036 21.954L34.8979 23.5L36.0744 22.138L35.5596 21.7699L36.3685 21.0337L35.7435 20.5552L36.5523 19.9294L36.0376 19.5245ZM11.0367 15.4018L11.8824 19.5245L11.3676 19.9294L12.1765 20.5552L11.5515 21.0337L12.3603 21.7699L11.8456 22.138L13.0221 23.5L18.3164 21.954L22.0665 18.7883L12.3236 11.5368L11.0367 15.4018Z" fill="#763E1A" stroke="#763E1A" stroke-width="0.25" stroke-linecap="round" stroke-linejoin="round"/>
<path d="M34.8978 23.5L29.6035 21.954L31.1845 24.3466L28.7947 28.9847L31.9566 28.9479H36.6626L34.8978 23.5ZM18.3164 21.954L13.0221 23.5L11.2573 28.9847H15.9634L19.1252 29.0215L16.7355 24.3834L18.3164 21.954ZM25.5225 24.6043L25.8534 18.7515L27.3976 14.592H20.5223L22.0665 18.7515L22.3974 24.6043L22.5445 26.4448V30.9724H25.3755V26.4448L25.5225 24.6043Z" fill="#F5841F" stroke="#F5841F" stroke-width="0.25" stroke-linecap="round" stroke-linejoin="round"/>
</g>
<defs>
<clipPath id="clip0_1014_1287">
<rect width="25.92" height="24" fill="white" transform="translate(11 11.5)"/>
</clipPath>
</defs>
</svg>
