<svg width="16" height="14" viewBox="0 0 16 14" fill="none" xmlns="http://www.w3.org/2000/svg">
<g id="metamask_symbol.svg" clip-path="url(#clip0_1004_10348)">
<g id="Group">
<path id="Vector" d="M15.2279 0.0214844L9.3515 4.38038L10.4453 1.80369L15.2279 0.0214844Z" fill="#E17726" stroke="#E17726" stroke-width="0.25" stroke-linecap="round" stroke-linejoin="round"/>
<path id="Vector_2" d="M1.65205 0.0214844L7.48558 4.42333L6.43469 1.82517L1.65205 0.0214844ZM13.1046 10.135L11.539 12.5399L14.9062 13.4632L15.8713 10.1994C15.8498 10.1994 13.1046 10.135 13.1046 10.135ZM1.03009 10.1994L1.9952 13.4632L5.3409 12.5399L3.77528 10.135L1.03009 10.1994Z" fill="#E27625" stroke="#E27625" stroke-width="0.25" stroke-linecap="round" stroke-linejoin="round"/>
<path id="Vector_3" d="M5.14792 6.09818L4.22571 7.51536L7.52852 7.6442L7.42128 4.07978L5.14792 6.09818ZM11.7321 6.09818L9.41584 4.03683L9.33005 7.66567L12.6543 7.51536C12.6543 7.49389 11.7321 6.09818 11.7321 6.09818ZM5.34094 12.5399L7.35694 11.5736L5.61975 10.2209L5.34094 12.5399ZM9.54452 11.5522L11.5391 12.5184L11.2603 10.1994C11.2817 10.2209 9.54452 11.5522 9.54452 11.5522Z" fill="#E27625" stroke="#E27625" stroke-width="0.25" stroke-linecap="round" stroke-linejoin="round"/>
<path id="Vector_4" d="M11.5391 12.5399L9.54452 11.5736L9.71609 12.8834L9.69464 13.4417L11.5391 12.5399ZM5.34094 12.5399L7.20681 13.4203L7.18537 12.862L7.35694 11.5522L5.34094 12.5399Z" fill="#D5BFB2" stroke="#D5BFB2" stroke-width="0.25" stroke-linecap="round" stroke-linejoin="round"/>
<path id="Vector_5" d="M7.22825 9.36197L5.57684 8.86811L6.75642 8.3313L7.22825 9.36197ZM9.65174 9.36197L10.145 8.3313L11.3246 8.86811L9.65174 9.36197Z" fill="#233447" stroke="#233447" stroke-width="0.25" stroke-linecap="round" stroke-linejoin="round"/>
<path id="Vector_6" d="M5.3409 12.5399L5.64115 10.135L3.79673 10.1994C3.77528 10.1994 5.3409 12.5399 5.3409 12.5399ZM11.2602 10.135L11.539 12.5399L13.1046 10.1994L11.2602 10.135ZM12.6543 7.49387L9.33 7.64417L9.63026 9.34049L10.1235 8.30982L11.3031 8.84663C11.3246 8.8681 12.6543 7.49387 12.6543 7.49387ZM5.57681 8.8681L6.75639 8.33129L7.24966 9.36196L7.54992 7.66564L4.22566 7.51534L5.57681 8.8681Z" fill="#CC6228" stroke="#CC6228" stroke-width="0.25" stroke-linecap="round" stroke-linejoin="round"/>
<path id="Vector_7" d="M4.22571 7.49387L5.61975 10.1994L5.57686 8.84663C5.57686 8.8681 4.22571 7.49387 4.22571 7.49387ZM11.3246 8.8681L11.2603 10.2209L12.6543 7.51534C12.6543 7.49387 11.3246 8.8681 11.3246 8.8681ZM7.54996 7.64417L7.22826 9.34049L7.6143 11.3589L7.70009 8.69632L7.54996 7.64417ZM9.3515 7.64417L9.17992 8.69632L9.26571 11.3589L9.65175 9.34049L9.3515 7.64417Z" fill="#E27525" stroke="#E27525" stroke-width="0.25" stroke-linecap="round" stroke-linejoin="round"/>
<path id="Vector_8" d="M9.65174 9.36197L9.26569 11.3804L9.5445 11.5736L11.2602 10.2209L11.3246 8.8681L9.65174 9.36197ZM5.57684 8.8681L5.61974 10.2209L7.35693 11.5736L7.63574 11.3804L7.24969 9.36197L5.57684 8.8681Z" fill="#F5841F" stroke="#F5841F" stroke-width="0.25" stroke-linecap="round" stroke-linejoin="round"/>
<path id="Vector_9" d="M9.69464 13.4203L9.71609 12.862L9.56596 12.7332H7.3355L7.18537 12.862L7.20681 13.4203L5.34094 12.5399L6.00579 13.0767L7.3355 13.9786H9.60886L10.9386 13.0552L11.582 12.5184L9.69464 13.4203Z" fill="#C0AC9D" stroke="#C0AC9D" stroke-width="0.25" stroke-linecap="round" stroke-linejoin="round"/>
<path id="Vector_10" d="M9.54451 11.5522L9.2657 11.3589H7.63575L7.35694 11.5522L7.18536 12.862L7.33549 12.7332H9.56596L9.71609 12.862L9.54451 11.5522Z" fill="#161616" stroke="#161616" stroke-width="0.25" stroke-linecap="round" stroke-linejoin="round"/>
<path id="Vector_11" d="M15.4853 4.68099L15.9785 2.27609L15.2279 0.0214844L9.54449 4.25155L11.7321 6.09817L14.8204 7.00001L15.5067 6.20553L15.2065 5.99081L15.6783 5.56136L15.3137 5.28222L15.7855 4.91719L15.4853 4.68099ZM0.901428 2.27609L1.3947 4.68099L1.09445 4.91719L1.56628 5.28222L1.20168 5.56136L1.67351 5.99081L1.37326 6.20553L2.05956 7.00001L5.1479 6.09817L7.33547 4.25155L1.65207 0.0214844L0.901428 2.27609Z" fill="#763E1A" stroke="#763E1A" stroke-width="0.25" stroke-linecap="round" stroke-linejoin="round"/>
<path id="Vector_12" d="M14.8204 7L11.732 6.09816L12.6543 7.49387L11.2602 10.1994L13.1046 10.1779H15.8498L14.8204 7ZM5.14788 6.09816L2.05954 7L1.03009 10.1994H3.77528L5.61971 10.2209L4.22567 7.51534L5.14788 6.09816ZM9.35145 7.64417L9.54447 4.23006L10.4452 1.80368H6.43469L7.33545 4.23006L7.52847 7.64417L7.61426 8.71779V11.3589H9.26567V8.71779L9.35145 7.64417Z" fill="#F5841F" stroke="#F5841F" stroke-width="0.25" stroke-linecap="round" stroke-linejoin="round"/>
</g>
</g>
<defs>
<clipPath id="clip0_1004_10348">
<rect width="15.12" height="14" fill="white" transform="translate(0.880005)"/>
</clipPath>
</defs>
</svg>
