<svg width="16" height="16" viewBox="0 0 16 16" fill="none" xmlns="http://www.w3.org/2000/svg">
<g id="Frame">
<path id="Vector" d="M14.8537 7.35375L9.85371 12.3537C9.78378 12.4238 9.69466 12.4714 9.59762 12.4908C9.50057 12.5101 9.39998 12.5002 9.30857 12.4623C9.21716 12.4244 9.13904 12.3603 9.0841 12.278C9.02917 12.1957 8.99988 12.0989 8.99996 12V9.51437C5.43121 9.71687 2.98434 12.0312 2.29746 12.7644C2.18961 12.8796 2.04817 12.9578 1.89328 12.9879C1.73838 13.0181 1.57793 12.9986 1.43475 12.9323C1.29157 12.8659 1.17295 12.7561 1.09579 12.6185C1.01863 12.4809 0.986842 12.3224 1.00496 12.1656C1.23684 10.1494 2.34121 8.21 4.11496 6.705C5.58809 5.455 7.37871 4.66187 8.99996 4.52312V2C8.99988 1.90105 9.02917 1.8043 9.0841 1.72201C9.13904 1.63971 9.21716 1.57556 9.30857 1.53769C9.39998 1.49981 9.50057 1.48991 9.59762 1.50923C9.69466 1.52856 9.78378 1.57624 9.85371 1.64625L14.8537 6.64625C14.9002 6.69268 14.9371 6.74783 14.9622 6.80853C14.9874 6.86923 15.0004 6.93429 15.0004 7C15.0004 7.0657 14.9874 7.13077 14.9622 7.19147C14.9371 7.25217 14.9002 7.30731 14.8537 7.35375Z" fill="#EAECF0"/>
</g>
</svg>
